<?xml version="1.0" encoding="UTF-8"?>
<svg width="366px" height="96px" viewBox="0 0 366 96" version="1.1" xmlns="http://www.w3.org/2000/svg" xmlns:xlink="http://www.w3.org/1999/xlink">
    <!-- Generator: Sketch 41.2 (35397) - http://www.bohemiancoding.com/sketch -->
    <title>Group</title>
    <desc>Created with Sketch.</desc>
    <defs></defs>
    <g id="Page-1" stroke="none" stroke-width="1" fill="none" fill-rule="evenodd">
        <g id="logo" transform="translate(-356.000000, -103.000000)">
            <g id="Group" transform="translate(356.000000, 103.000000)">
                <path d="M46.8,79.6 L38.5,79.6 L38.5,72 C35.5,77.8 29.2,80.9 22.3,80.9 C8.3,80.9 0,70 0,57.9 C0,44.6 9.7,34.9 22.3,34.9 C30.9,34.9 36.5,39.7 38.5,43.9 L38.5,36 L46.8,36 L46.8,79.6 Z M8.3,58 C8.4,64.5 12.9,73.1 23.5,73.1 C30.1,73.1 34.9,69.4 37,64.5 C38,62.5 38.4,60.3 38.5,58 C38.6,55.8 38.2,53.5 37.2,51.5 C35.1,46.5 30.2,42.5 23.3,42.5 C14.2,42.5 8.3,49.7 8.3,58 L8.3,58 Z" id="Shape" fill="#E0E0E0"></path>
                <path d="M57.8,36 L65.7,36 L65.7,43.6 C69,38.4 74.6,34.7 82.3,34.7 C97.3,34.7 104.3,47.2 104.3,58 C104.3,70.3 95.4,80.8 82.4,80.8 C73.4,80.8 68,75.8 66.1,72.3 L66.1,79.5 L66.1,95.3 L57.8,95.3 L57.8,36 L57.8,36 Z M96,57.7 C96,50.6 91,42.5 80.8,42.5 C76.5,42.5 72.7,44.2 70,47 C67.4,49.7 65.8,53.6 65.8,57.9 C65.8,62.2 67.4,66 70.1,68.7 C72.8,71.4 76.7,73.1 80.9,73.1 C89.6,73.1 96,66.3 96,57.7 L96,57.7 Z" id="Shape" fill="#E0E0E0"></path>
                <path d="M112.8,36 L120.7,36 L120.7,43.6 C124,38.4 129.6,34.7 137.3,34.7 C152.3,34.7 159.3,47.2 159.3,58 C159.3,70.3 150.4,80.8 137.4,80.8 C128.4,80.8 123,75.8 121.1,72.3 L121.1,79.5 L121.1,95.3 L112.8,95.3 L112.8,36 L112.8,36 Z M151,57.7 C151,50.6 146,42.5 135.8,42.5 C131.5,42.5 127.7,44.2 125,47 C122.4,49.7 120.8,53.6 120.8,57.9 C120.8,62.2 122.4,66 125.1,68.7 C127.8,71.4 131.7,73.1 135.9,73.1 C144.7,73.1 151,66.3 151,57.7 L151,57.7 Z" id="Shape" fill="#E0E0E0"></path>
                <path d="M167.3,20.4 L180.6,20.4 L180.6,35.4 L180.6,38.8 C185.3,33.8 191.6,33.8 193.5,33.8 C202.8,33.8 215.3,40.4 215.3,57.2 C215.3,73.2 204.2,81.2 192.9,81.2 C186.7,81.2 181.9,78.2 180,75 L180,79.7 L167.3,79.7 L167.3,20.4 L167.3,20.4 Z M202,57.3 C202,51.6 197.7,46.1 191.1,46.1 C184.1,46.1 180.1,51.8 180.1,57.3 C180.1,63.5 184.3,68.7 190.9,68.7 C197.7,68.7 202,63.2 202,57.3 L202,57.3 Z" id="Shape" fill="#37CB7D"></path>
                <path d="M263.9,79.6 L251.5,79.6 L251.5,74.9 C250,77.1 247.2,81.1 239.2,81.1 C224.2,81.1 222.6,68.9 222.6,62.9 L222.6,35.1 L235.9,35.1 L235.9,59.3 C235.9,64.2 236.9,68.5 242.9,68.5 C249.5,68.5 250.6,63.8 250.6,59.2 L250.6,35 L263.9,35 L263.9,79.6 Z" id="Shape" fill="#37CB7D"></path>
                <path d="M273.5,20.4 L286.8,20.4 L286.8,30.5 L273.5,30.5 L273.5,20.4 Z M273.5,35.2 L286.8,35.2 L286.8,79.6 L273.5,79.6 L273.5,35.2 Z" id="Shape" fill="#37CB7D"></path>
                <g transform="translate(294.000000, 0.000000)" id="Shape">
                    <g transform="translate(0.000000, 29.000000)" fill="#37CB7D">
                        <polygon points="0.6 16.9 17.5 16.9 17.5 50.6 0.6 50.6"></polygon>
                        <polygon points="17.5 0 0.6 0 0.6 6.7 17.5 6.7"></polygon>
                    </g>
                    <path d="M0.6,35.8 C1.9,37 4,38.8 4,40.9 C4,42.9 2,44.8 0.6,46 L17.5,46 C16.2,44.8 14.1,43 14.1,40.9 C14.1,38.9 16.1,37 17.5,35.8 L0.6,35.8 Z" fill="#257C4C"></path>
                    <path d="M9.1,0.3 L9.1,0.3 C10.1,0.3 11,1 11.1,2 L12.4,8.7 L12.4,17.1 L5.7,17.1 L5.7,8.7 L7,2 C7.2,1 8.1,0.3 9.1,0.3" fill="#E0E0E0"></path>
                    <polygon fill="#E0E0E0" points="12.5 17.2 5.8 17.2 5.8 29 12.5 29"></polygon>
                    <path d="M9.1,50.9 C10.1,50.9 10.8,51.6 10.8,52.6 L10.8,72.8 C10.8,73.8 10.1,74.5 9.1,74.5 C8.1,74.5 7.4,73.8 7.4,72.8 L7.4,52.6 C7.4,51.6 8.1,50.9 9.1,50.9" fill="#257C4C"></path>
                </g>
                <path d="M365.5,79.6 L352.9,79.6 L352.9,74.8 C351.6,76.6 348.4,81 339.5,81 C326.1,81 317.3,70.6 317.3,57.2 C317.3,42.2 328,33.6 339.3,33.6 C347.1,33.6 350.9,37.4 352.3,38.9 L352.3,34.1 L352.3,20.3 L365.6,20.3 L365.6,79.6 L365.5,79.6 Z M330.4,57.3 C330.4,64.1 335.3,68.7 341.5,68.7 C344.7,68.7 347.7,67.4 349.7,65.3 C351.8,63.2 353,60.3 352.8,57.1 C352.8,53.9 351.5,51.2 349.5,49.3 C347.5,47.3 344.7,46.2 341.6,46.2 C334,46.1 330.4,52.1 330.4,57.3 L330.4,57.3 Z" id="Shape" fill="#37CB7D"></path>
            </g>
        </g>
    </g>
</svg>